<svg width="960" height="680" viewBox="0 0 960 680" role="img" aria-labelledby="cm-06-title cm-06-desc" xmlns="http://www.w3.org/2000/svg">
  <title id="cm-06-title">Battle Card - 竞争者 A</title>
  <desc id="cm-06-desc">竞品对比战卡模板，包括概述、优劣势、差异化、客户问题、地雷问题与成功案例。</desc>
  <defs>
    <linearGradient id="cm-06-bg" x1="0" y1="0" x2="1" y2="1">
      <stop offset="0%" stop-color="#F8FAFC" />
      <stop offset="100%" stop-color="#EEF2F7" />
    </linearGradient>
    <filter id="cm-06-shadow" x="-10%" y="-10%" width="120%" height="120%">
      <feDropShadow dx="0" dy="2" stdDeviation="3" flood-color="#0F172A" flood-opacity="0.12" />
    </filter>
    <style>
      .title { font: 700 20px/1.2 "Noto Sans SC", "PingFang SC", "Microsoft YaHei", Arial, sans-serif; fill: #0F172A; }
      .section { font: 700 13px/1.2 "Noto Sans SC", "PingFang SC", "Microsoft YaHei", Arial, sans-serif; fill: #0F172A; }
      .body { font: 12px/1.6 "Noto Sans SC", "PingFang SC", "Microsoft YaHei", Arial, sans-serif; fill: #334155; }
      .line { stroke: #CBD5F5; stroke-width: 1.5; }
    </style>
  </defs>

  <rect x="16" y="16" width="928" height="648" rx="18" fill="url(#cm-06-bg)" stroke="#E2E8F0" />
  <text x="480" y="48" text-anchor="middle" class="title">Battle Card - 竞争者 A</text>

  <g filter="url(#cm-06-shadow)">
    <rect x="60" y="80" width="840" height="80" rx="16" fill="#FFFFFF" stroke="#E2E8F0" />
    <text x="80" y="110" class="section">【竞品概述】</text>
    <line x1="200" y1="126" x2="860" y2="126" class="line" />

    <rect x="60" y="180" width="400" height="120" rx="16" fill="#FFFFFF" stroke="#E2E8F0" />
    <rect x="500" y="180" width="400" height="120" rx="16" fill="#FFFFFF" stroke="#E2E8F0" />
    <text x="80" y="210" class="section">【他们的优势】</text>
    <text x="520" y="210" class="section">【他们的劣势】</text>
    <text x="80" y="236" class="body">•</text>
    <line x1="100" y1="236" x2="420" y2="236" class="line" />
    <text x="80" y="260" class="body">•</text>
    <line x1="100" y1="260" x2="420" y2="260" class="line" />
    <text x="80" y="284" class="body">•</text>
    <line x1="100" y1="284" x2="420" y2="284" class="line" />

    <text x="520" y="236" class="body">•</text>
    <line x1="540" y1="236" x2="860" y2="236" class="line" />
    <text x="520" y="260" class="body">•</text>
    <line x1="540" y1="260" x2="860" y2="260" class="line" />
    <text x="520" y="284" class="body">•</text>
    <line x1="540" y1="284" x2="860" y2="284" class="line" />

    <rect x="60" y="320" width="840" height="80" rx="16" fill="#FFFFFF" stroke="#E2E8F0" />
    <text x="80" y="350" class="section">【我们的差异化】</text>
    <line x1="200" y1="366" x2="860" y2="366" class="line" />

    <rect x="60" y="420" width="840" height="160" rx="16" fill="#FFFFFF" stroke="#E2E8F0" />
    <text x="80" y="450" class="section">【常见客户问题 &amp; 回答】</text>

    <text x="80" y="476" class="body">Q: "竞品 A 功能更多，为什么选择你们？"</text>
    <text x="80" y="498" class="body">A:</text>
    <line x1="110" y1="498" x2="860" y2="498" class="line" />

    <text x="80" y="524" class="body">Q: "竞品 A 价格更便宜，你们贵在哪里？"</text>
    <text x="80" y="546" class="body">A:</text>
    <line x1="110" y1="546" x2="860" y2="546" class="line" />

    <text x="80" y="572" class="body">Q: "竞品 A 市场份额更大，你们怎么保证？"</text>
    <text x="80" y="594" class="body">A:</text>
    <line x1="110" y1="594" x2="860" y2="594" class="line" />

    <rect x="60" y="600" width="400" height="80" rx="16" fill="#FFFFFF" stroke="#E2E8F0" />
    <rect x="500" y="600" width="400" height="80" rx="16" fill="#FFFFFF" stroke="#E2E8F0" />

    <text x="80" y="624" class="section">【地雷问题】- 避免提及</text>
    <text x="80" y="648" class="body">•</text>
    <line x1="100" y1="648" x2="420" y2="648" class="line" />
    <text x="80" y="668" class="body">•</text>
    <line x1="100" y1="668" x2="420" y2="668" class="line" />

    <text x="520" y="624" class="section">【成功案例】</text>
    <text x="520" y="648" class="body">从竞品 A 迁移的客户：</text>
    <line x1="680" y1="648" x2="860" y2="648" class="line" />
    <text x="520" y="668" class="body">客户证言：</text>
    <line x1="600" y1="668" x2="860" y2="668" class="line" />
  </g>
</svg>
