<svg width="960" height="260" viewBox="0 0 960 260" role="img" aria-labelledby="plg-04-title plg-04-desc" xmlns="http://www.w3.org/2000/svg">
  <title id="plg-04-title">内容驱动增长飞轮</title>
  <desc id="plg-04-desc">优质产品驱动用户创作内容，吸引新用户，形成创作者与内容的循环增长。</desc>
  <defs>
    <linearGradient id="plg-04-bg" x1="0" y1="0" x2="1" y2="1">
      <stop offset="0%" stop-color="#F8FAFC" />
      <stop offset="100%" stop-color="#EEF2F7" />
    </linearGradient>
    <marker id="plg-04-arrow" markerWidth="10" markerHeight="10" refX="8" refY="3" orient="auto" markerUnits="strokeWidth">
      <path d="M0,0 L8,3 L0,6 Z" fill="#64748B" />
    </marker>
    <style>
      .node { font: 600 12px/1 "Noto Sans SC", "PingFang SC", "Microsoft YaHei", Arial, sans-serif; fill: #1E293B; }
      .line { stroke: #64748B; stroke-width: 1.8; fill: none; }
    </style>
  </defs>

  <rect x="16" y="16" width="928" height="228" rx="18" fill="url(#plg-04-bg)" stroke="#E2E8F0" />

  <g>
    <rect x="70" y="90" width="140" height="36" rx="18" fill="#E0F2FE" />
    <rect x="230" y="90" width="150" height="36" rx="18" fill="#E0F2FE" />
    <rect x="400" y="90" width="140" height="36" rx="18" fill="#E0F2FE" />
    <rect x="560" y="90" width="140" height="36" rx="18" fill="#E0F2FE" />
    <rect x="720" y="90" width="140" height="36" rx="18" fill="#E0F2FE" />

    <text x="140" y="113" text-anchor="middle" class="node">优质产品</text>
    <text x="305" y="113" text-anchor="middle" class="node">用户创作内容</text>
    <text x="470" y="113" text-anchor="middle" class="node">吸引新用户</text>
    <text x="630" y="113" text-anchor="middle" class="node">更多创作者</text>
    <text x="790" y="113" text-anchor="middle" class="node">更多内容</text>
  </g>

  <line x1="210" y1="108" x2="230" y2="108" class="line" marker-end="url(#plg-04-arrow)" />
  <line x1="380" y1="108" x2="400" y2="108" class="line" marker-end="url(#plg-04-arrow)" />
  <line x1="540" y1="108" x2="560" y2="108" class="line" marker-end="url(#plg-04-arrow)" />
  <line x1="700" y1="108" x2="720" y2="108" class="line" marker-end="url(#plg-04-arrow)" />

  <path d="M860 108 C900 170, 760 210, 480 210 C200 210, 80 170, 80 108" class="line" marker-end="url(#plg-04-arrow)" />
</svg>
