<svg width="960" height="460" viewBox="0 0 960 460" role="img" aria-labelledby="chasm-15-title chasm-15-desc" xmlns="http://www.w3.org/2000/svg">
  <title id="chasm-15-title">有赞跨越鸿沟路径</title>
  <desc id="chasm-15-desc">有赞从早期市场到主流市场的目标客户、策略与证明演进。</desc>
  <defs>
    <linearGradient id="chasm-15-bg" x1="0" y1="0" x2="1" y2="1">
      <stop offset="0%" stop-color="#F8FAFC" />
      <stop offset="100%" stop-color="#EEF2F7" />
    </linearGradient>
    <filter id="chasm-15-shadow" x="-10%" y="-10%" width="120%" height="120%">
      <feDropShadow dx="0" dy="2" stdDeviation="3" flood-color="#0F172A" flood-opacity="0.12" />
    </filter>
    <style>
      .title { font: 700 20px/1.2 "Noto Sans SC", "PingFang SC", "Microsoft YaHei", Arial, sans-serif; fill: #0F172A; }
      .header { font: 700 12px/1.2 "Noto Sans SC", "PingFang SC", "Microsoft YaHei", Arial, sans-serif; fill: #0F172A; }
      .sub { font: 11px/1.3 "Noto Sans SC", "PingFang SC", "Microsoft YaHei", Arial, sans-serif; fill: #64748B; }
      .cell { font: 12px/1.5 "Noto Sans SC", "PingFang SC", "Microsoft YaHei", Arial, sans-serif; fill: #334155; }
      .label { font: 600 11px/1.4 "Noto Sans SC", "PingFang SC", "Microsoft YaHei", Arial, sans-serif; fill: #475569; }
      .grid { stroke: #E2E8F0; }
    </style>
  </defs>

  <rect x="16" y="16" width="928" height="428" rx="18" fill="url(#chasm-15-bg)" stroke="#E2E8F0" />
  <text x="480" y="48" text-anchor="middle" class="title">有赞跨越鸿沟路径</text>

  <g filter="url(#chasm-15-shadow)">
    <rect x="60" y="80" width="840" height="330" rx="16" fill="#FFFFFF" stroke="#E2E8F0" />
    <line x1="340" y1="80" x2="340" y2="410" class="grid" />
    <line x1="620" y1="80" x2="620" y2="410" class="grid" />
    <line x1="60" y1="140" x2="900" y2="140" class="grid" />
    <line x1="60" y1="250" x2="900" y2="250" class="grid" />

    <text x="90" y="110" class="header">Early Market</text>
    <text x="90" y="130" class="sub">创新者 + 愿景者 / 2012-2015</text>

    <text x="370" y="110" class="header">Bowling Alley</text>
    <text x="370" y="130" class="sub">跨越鸿沟 / 2015-2018</text>

    <text x="650" y="110" class="header">Main Street</text>
    <text x="650" y="130" class="sub">主流市场 / 2018+</text>

    <text x="90" y="170" class="cell">• 微信电商先锋</text>
    <text x="90" y="192" class="cell">• KOL / 网红</text>

    <text x="370" y="170" class="cell">• 美妆 / 母婴</text>
    <text x="370" y="192" class="cell">• 品牌商家</text>
    <text x="370" y="214" class="cell">• 餐饮商家</text>

    <text x="650" y="170" class="cell">• 传统零售</text>
    <text x="650" y="192" class="cell">• 连锁品牌</text>
    <text x="650" y="214" class="cell">• 大型企业</text>

    <text x="90" y="270" class="label">策略</text>
    <text x="90" y="292" class="cell">• 免费/低价获客</text>
    <text x="90" y="314" class="cell">• 口碑传播</text>
    <text x="90" y="336" class="cell">• 产品快速迭代</text>

    <text x="370" y="270" class="label">策略</text>
    <text x="370" y="292" class="cell">• 行业深耕</text>
    <text x="370" y="314" class="cell">• 案例积累</text>
    <text x="370" y="336" class="cell">• 服务商发展</text>

    <text x="650" y="270" class="label">策略</text>
    <text x="650" y="292" class="cell">• 产品平台化</text>
    <text x="650" y="314" class="cell">• 服务商生态</text>
    <text x="650" y="336" class="cell">• 大客户团队</text>

    <text x="90" y="360" class="label">证明</text>
    <text x="90" y="384" class="cell">“微信能卖货”</text>

    <text x="370" y="360" class="label">证明</text>
    <text x="370" y="384" class="cell">“这个行业适用”</text>

    <text x="650" y="360" class="label">证明</text>
    <text x="650" y="384" class="cell">“大公司也在用”</text>
  </g>
</svg>
