<svg width="960" height="420" viewBox="0 0 960 420" role="img" aria-labelledby="ai-08-title ai-08-desc" xmlns="http://www.w3.org/2000/svg">
  <title id="ai-08-title">AI 客户成功应用场景</title>
  <desc id="ai-08-desc">AI 在客户成功中的应用：流失预测、个性化推荐、自动化支持与用户洞察。</desc>
  <defs>
    <linearGradient id="ai-08-bg" x1="0" y1="0" x2="1" y2="1">
      <stop offset="0%" stop-color="#F8FAFC" />
      <stop offset="100%" stop-color="#EEF2F7" />
    </linearGradient>
    <filter id="ai-08-shadow" x="-10%" y="-10%" width="120%" height="120%">
      <feDropShadow dx="0" dy="2" stdDeviation="3" flood-color="#0F172A" flood-opacity="0.12" />
    </filter>
    <style>
      .title { font: 700 20px/1.2 "Noto Sans SC", "PingFang SC", "Microsoft YaHei", Arial, sans-serif; fill: #0F172A; }
      .section { font: 700 13px/1.2 "Noto Sans SC", "PingFang SC", "Microsoft YaHei", Arial, sans-serif; fill: #0F172A; }
      .body { font: 12px/1.6 "Noto Sans SC", "PingFang SC", "Microsoft YaHei", Arial, sans-serif; fill: #334155; }
    </style>
  </defs>

  <rect x="16" y="16" width="928" height="388" rx="18" fill="url(#ai-08-bg)" stroke="#E2E8F0" />
  <text x="480" y="48" text-anchor="middle" class="title">AI 客户成功应用场景</text>

  <g filter="url(#ai-08-shadow)">
    <rect x="60" y="80" width="400" height="140" rx="16" fill="#FFFFFF" stroke="#E2E8F0" />
    <rect x="500" y="80" width="400" height="140" rx="16" fill="#FFFFFF" stroke="#E2E8F0" />
    <rect x="60" y="240" width="400" height="140" rx="16" fill="#FFFFFF" stroke="#E2E8F0" />
    <rect x="500" y="240" width="400" height="140" rx="16" fill="#FFFFFF" stroke="#E2E8F0" />

    <text x="80" y="110" class="section">流失预测</text>
    <text x="80" y="136" class="body">• 健康分预测</text>
    <text x="80" y="158" class="body">• 风险早期预警</text>
    <text x="80" y="180" class="body">• 干预建议</text>
    <text x="80" y="202" class="body">• 根因分析</text>

    <text x="520" y="110" class="section">个性化推荐</text>
    <text x="520" y="136" class="body">• 功能推荐</text>
    <text x="520" y="158" class="body">• 内容推荐</text>
    <text x="520" y="180" class="body">• 培训推荐</text>
    <text x="520" y="202" class="body">• 扩展机会</text>

    <text x="80" y="270" class="section">自动化支持</text>
    <text x="80" y="296" class="body">• AI Chatbot</text>
    <text x="80" y="318" class="body">• 智能工单路由</text>
    <text x="80" y="340" class="body">• 自动回复</text>
    <text x="80" y="362" class="body">• 知识库智能搜索</text>

    <text x="520" y="270" class="section">用户洞察</text>
    <text x="520" y="296" class="body">• 使用模式分析</text>
    <text x="520" y="318" class="body">• 满意度预测</text>
    <text x="520" y="340" class="body">• NPS 预测</text>
    <text x="520" y="362" class="body">• 反馈分析</text>
  </g>
</svg>
