<svg width="960" height="640" viewBox="0 0 960 640" role="img" aria-labelledby="sf-org-title sf-org-desc" xmlns="http://www.w3.org/2000/svg">
  <title id="sf-org-title">Salesforce GTM 组织架构</title>
  <desc id="sf-org-desc">CEO 下设 CMO、President 与 CRO，RevOps 连接销售与营销。</desc>
  <defs>
    <linearGradient id="sf-org-bg" x1="0" y1="0" x2="1" y2="1">
      <stop offset="0%" stop-color="#F8FAFC" />
      <stop offset="100%" stop-color="#EEF2F7" />
    </linearGradient>
    <filter id="sf-org-shadow" x="-10%" y="-10%" width="120%" height="120%">
      <feDropShadow dx="0" dy="2" stdDeviation="3" flood-color="#0F172A" flood-opacity="0.12" />
    </filter>
    <marker id="sf-org-arrow" markerWidth="10" markerHeight="10" refX="8" refY="3" orient="auto" markerUnits="strokeWidth">
      <path d="M0,0 L8,3 L0,6 Z" fill="#64748B" />
    </marker>
    <style>
      .title { font: 700 20px/1.2 "Noto Sans SC", "PingFang SC", "Microsoft YaHei", Arial, sans-serif; fill: #0F172A; }
      .role { font: 700 13px/1.2 "Noto Sans SC", "PingFang SC", "Microsoft YaHei", Arial, sans-serif; fill: #0F172A; }
      .sub { font: 12px/1.3 "Noto Sans SC", "PingFang SC", "Microsoft YaHei", Arial, sans-serif; fill: #334155; }
      .note { font: 12px/1.4 "Noto Sans SC", "PingFang SC", "Microsoft YaHei", Arial, sans-serif; fill: #475569; }
      .line { stroke: #64748B; stroke-width: 1.5; fill: none; }
    </style>
  </defs>

  <rect x="16" y="16" width="928" height="608" rx="18" fill="url(#sf-org-bg)" stroke="#E2E8F0" />
  <text x="480" y="48" text-anchor="middle" class="title">Salesforce GTM 组织架构</text>

  <g filter="url(#sf-org-shadow)">
    <rect x="420" y="70" width="120" height="46" rx="12" fill="#FFFFFF" stroke="#E2E8F0" />
    <text x="480" y="99" text-anchor="middle" class="role">CEO</text>
  </g>

  <g filter="url(#sf-org-shadow)">
    <rect x="120" y="150" width="140" height="52" rx="12" fill="#FFFFFF" stroke="#E2E8F0" />
    <text x="190" y="183" text-anchor="middle" class="role">CMO</text>
  </g>
  <g filter="url(#sf-org-shadow)">
    <rect x="410" y="150" width="140" height="52" rx="12" fill="#FFFFFF" stroke="#E2E8F0" />
    <text x="480" y="183" text-anchor="middle" class="role">President</text>
  </g>
  <g filter="url(#sf-org-shadow)">
    <rect x="700" y="150" width="140" height="52" rx="12" fill="#FFFFFF" stroke="#E2E8F0" />
    <text x="770" y="183" text-anchor="middle" class="role">CRO</text>
  </g>

  <line x1="480" y1="116" x2="190" y2="150" class="line" marker-end="url(#sf-org-arrow)" />
  <line x1="480" y1="116" x2="480" y2="150" class="line" marker-end="url(#sf-org-arrow)" />
  <line x1="480" y1="116" x2="770" y2="150" class="line" marker-end="url(#sf-org-arrow)" />

  <g filter="url(#sf-org-shadow)">
    <rect x="380" y="220" width="200" height="50" rx="12" fill="#E0F2FE" stroke="#7DD3FC" />
    <text x="480" y="250" text-anchor="middle" class="role">RevOps</text>
  </g>
  <line x1="480" y1="202" x2="480" y2="220" class="line" marker-end="url(#sf-org-arrow)" />

  <g filter="url(#sf-org-shadow)">
    <rect x="80" y="300" width="180" height="50" rx="12" fill="#FFFFFF" stroke="#E2E8F0" />
    <text x="170" y="330" text-anchor="middle" class="role">Brand</text>
  </g>
  <g filter="url(#sf-org-shadow)">
    <rect x="280" y="300" width="180" height="50" rx="12" fill="#FFFFFF" stroke="#E2E8F0" />
    <text x="370" y="330" text-anchor="middle" class="role">Demand Gen</text>
  </g>
  <g filter="url(#sf-org-shadow)">
    <rect x="480" y="300" width="180" height="50" rx="12" fill="#FFFFFF" stroke="#E2E8F0" />
    <text x="570" y="330" text-anchor="middle" class="role">Product Marketing</text>
  </g>
  <g filter="url(#sf-org-shadow)">
    <rect x="680" y="300" width="180" height="50" rx="12" fill="#FFFFFF" stroke="#E2E8F0" />
    <text x="770" y="330" text-anchor="middle" class="role">Field Mktg</text>
  </g>

  <g filter="url(#sf-org-shadow)">
    <rect x="120" y="380" width="180" height="60" rx="12" fill="#FFFFFF" stroke="#E2E8F0" />
    <text x="210" y="410" text-anchor="middle" class="role">Sales Dev (SDR)</text>
  </g>
  <g filter="url(#sf-org-shadow)">
    <rect x="380" y="380" width="180" height="60" rx="12" fill="#FFFFFF" stroke="#E2E8F0" />
    <text x="470" y="410" text-anchor="middle" class="role">Deal Desk</text>
  </g>
  <g filter="url(#sf-org-shadow)">
    <rect x="640" y="380" width="180" height="60" rx="12" fill="#FFFFFF" stroke="#E2E8F0" />
    <text x="730" y="410" text-anchor="middle" class="role">Field Sales</text>
  </g>

  <g filter="url(#sf-org-shadow)">
    <rect x="80" y="470" width="800" height="120" rx="16" fill="#FFFFFF" stroke="#E2E8F0" />
    <text x="110" y="500" class="role">关键设计</text>
    <text x="110" y="524" class="note">• SDR 团队向 RevOps 汇报（中立角色）</text>
    <text x="110" y="546" class="note">• Field Marketing 与区域销售紧密配合</text>
    <text x="110" y="568" class="note">• Deal Desk 统一管理定价和审批</text>
  </g>
</svg>
