<svg width="960" height="420" viewBox="0 0 960 420" role="img" aria-labelledby="mp-01-title mp-01-desc" xmlns="http://www.w3.org/2000/svg">
  <title id="mp-01-title">里程碑规划的价值</title>
  <desc id="mp-01-desc">里程碑规划的五个核心作用。</desc>
  <defs>
    <linearGradient id="mp-01-bg" x1="0" y1="0" x2="1" y2="1">
      <stop offset="0%" stop-color="#F8FAFC" />
      <stop offset="100%" stop-color="#EEF2F7" />
    </linearGradient>
    <filter id="mp-01-shadow" x="-10%" y="-10%" width="120%" height="120%">
      <feDropShadow dx="0" dy="2" stdDeviation="3" flood-color="#0F172A" flood-opacity="0.12" />
    </filter>
    <style>
      .title { font: 700 20px/1.2 "Noto Sans SC", "PingFang SC", "Microsoft YaHei", Arial, sans-serif; fill: #0F172A; }
      .num { font: 700 12px/1 "Noto Sans SC", "PingFang SC", "Microsoft YaHei", Arial, sans-serif; fill: #0F172A; }
      .q { font: 700 13px/1.2 "Noto Sans SC", "PingFang SC", "Microsoft YaHei", Arial, sans-serif; fill: #0F172A; }
      .body { font: 12px/1.6 "Noto Sans SC", "PingFang SC", "Microsoft YaHei", Arial, sans-serif; fill: #334155; }
    </style>
  </defs>

  <rect x="16" y="16" width="928" height="388" rx="18" fill="url(#mp-01-bg)" stroke="#E2E8F0" />
  <text x="480" y="48" text-anchor="middle" class="title">里程碑规划的价值</text>

  <g filter="url(#mp-01-shadow)">
    <rect x="80" y="90" width="380" height="80" rx="14" fill="#FFFFFF" stroke="#E2E8F0" />
    <rect x="500" y="90" width="380" height="80" rx="14" fill="#FFFFFF" stroke="#E2E8F0" />
    <rect x="80" y="190" width="380" height="80" rx="14" fill="#FFFFFF" stroke="#E2E8F0" />
    <rect x="500" y="190" width="380" height="80" rx="14" fill="#FFFFFF" stroke="#E2E8F0" />
    <rect x="290" y="290" width="380" height="80" rx="14" fill="#FFFFFF" stroke="#E2E8F0" />

    <circle cx="110" cy="120" r="14" fill="#E0F2FE" stroke="#BAE6FD" />
    <text x="110" y="124" text-anchor="middle" class="num">1</text>
    <text x="135" y="118" class="q">创建共同目标</text>
    <text x="135" y="142" class="body">团队对齐、统一方向</text>

    <circle cx="530" cy="120" r="14" fill="#E0F2FE" stroke="#BAE6FD" />
    <text x="530" y="124" text-anchor="middle" class="num">2</text>
    <text x="555" y="118" class="q">分解复杂项目</text>
    <text x="555" y="142" class="body">大目标拆解为可执行的阶段</text>

    <circle cx="110" cy="220" r="14" fill="#E0F2FE" stroke="#BAE6FD" />
    <text x="110" y="224" text-anchor="middle" class="num">3</text>
    <text x="135" y="218" class="q">建立检查点</text>
    <text x="135" y="242" class="body">定期评估、及时调整</text>

    <circle cx="530" cy="220" r="14" fill="#E0F2FE" stroke="#BAE6FD" />
    <text x="530" y="224" text-anchor="middle" class="num">4</text>
    <text x="555" y="218" class="q">管理依赖关系</text>
    <text x="555" y="242" class="body">识别关键路径、协调资源</text>

    <circle cx="320" cy="320" r="14" fill="#E0F2FE" stroke="#BAE6FD" />
    <text x="320" y="324" text-anchor="middle" class="num">5</text>
    <text x="345" y="318" class="q">降低风险</text>
    <text x="345" y="342" class="body">早期发现问题、预留缓冲</text>
  </g>
</svg>
