<svg width="960" height="260" viewBox="0 0 960 260" role="img" aria-labelledby="plg-08-title plg-08-desc" xmlns="http://www.w3.org/2000/svg">
  <title id="plg-08-title">插件生态增长飞轮</title>
  <desc id="plg-08-desc">好产品驱动开发者构建插件，产品变更好用，带来更多用户与开发者。</desc>
  <defs>
    <linearGradient id="plg-08-bg" x1="0" y1="0" x2="1" y2="1">
      <stop offset="0%" stop-color="#F8FAFC" />
      <stop offset="100%" stop-color="#EEF2F7" />
    </linearGradient>
    <marker id="plg-08-arrow" markerWidth="10" markerHeight="10" refX="8" refY="3" orient="auto" markerUnits="strokeWidth">
      <path d="M0,0 L8,3 L0,6 Z" fill="#64748B" />
    </marker>
    <style>
      .node { font: 600 12px/1 "Noto Sans SC", "PingFang SC", "Microsoft YaHei", Arial, sans-serif; fill: #1E293B; }
      .line { stroke: #64748B; stroke-width: 1.8; fill: none; }
    </style>
  </defs>

  <rect x="16" y="16" width="928" height="228" rx="18" fill="url(#plg-08-bg)" stroke="#E2E8F0" />

  <g>
    <rect x="70" y="90" width="140" height="36" rx="18" fill="#FEF3C7" />
    <rect x="230" y="90" width="150" height="36" rx="18" fill="#FEF3C7" />
    <rect x="400" y="90" width="140" height="36" rx="18" fill="#FEF3C7" />
    <rect x="560" y="90" width="140" height="36" rx="18" fill="#FEF3C7" />
    <rect x="720" y="90" width="140" height="36" rx="18" fill="#FEF3C7" />

    <text x="140" y="113" text-anchor="middle" class="node">好产品</text>
    <text x="305" y="113" text-anchor="middle" class="node">开发者建插件</text>
    <text x="470" y="113" text-anchor="middle" class="node">产品更好用</text>
    <text x="630" y="113" text-anchor="middle" class="node">更多用户</text>
    <text x="790" y="113" text-anchor="middle" class="node">更多开发者</text>
  </g>

  <line x1="210" y1="108" x2="230" y2="108" class="line" marker-end="url(#plg-08-arrow)" />
  <line x1="380" y1="108" x2="400" y2="108" class="line" marker-end="url(#plg-08-arrow)" />
  <line x1="540" y1="108" x2="560" y2="108" class="line" marker-end="url(#plg-08-arrow)" />
  <line x1="700" y1="108" x2="720" y2="108" class="line" marker-end="url(#plg-08-arrow)" />

  <path d="M860 108 C900 170, 760 210, 480 210 C200 210, 80 170, 80 108" class="line" marker-end="url(#plg-08-arrow)" />
</svg>
