<svg width="960" height="600" viewBox="0 0 960 600" role="img" aria-labelledby="chasm-16-title chasm-16-desc" xmlns="http://www.w3.org/2000/svg">
  <title id="chasm-16-title">跨越鸿沟成功要素模型</title>
  <desc id="chasm-16-desc">跨越鸿沟的四个关键要素：滩头阵地、整体产品、市场教育与信任证据。</desc>
  <defs>
    <linearGradient id="chasm-16-bg" x1="0" y1="0" x2="1" y2="1">
      <stop offset="0%" stop-color="#F8FAFC" />
      <stop offset="100%" stop-color="#EEF2F7" />
    </linearGradient>
    <filter id="chasm-16-shadow" x="-10%" y="-10%" width="120%" height="120%">
      <feDropShadow dx="0" dy="2" stdDeviation="3" flood-color="#0F172A" flood-opacity="0.12" />
    </filter>
    <style>
      .title { font: 700 20px/1.2 "Noto Sans SC", "PingFang SC", "Microsoft YaHei", Arial, sans-serif; fill: #0F172A; }
      .section { font: 700 13px/1.2 "Noto Sans SC", "PingFang SC", "Microsoft YaHei", Arial, sans-serif; fill: #0F172A; }
      .body { font: 12px/1.6 "Noto Sans SC", "PingFang SC", "Microsoft YaHei", Arial, sans-serif; fill: #334155; }
    </style>
  </defs>

  <rect x="16" y="16" width="928" height="568" rx="18" fill="url(#chasm-16-bg)" stroke="#E2E8F0" />
  <text x="480" y="48" text-anchor="middle" class="title">跨越鸿沟成功要素模型</text>

  <g filter="url(#chasm-16-shadow)">
    <rect x="60" y="80" width="840" height="120" rx="16" fill="#FFFFFF" stroke="#E2E8F0" />
    <text x="80" y="108" class="section">1. 选择清晰的滩头阵地</text>
    <text x="80" y="136" class="body">• 不是所有细分市场都适合</text>
    <text x="80" y="158" class="body">• 选择对新事物开放的群体</text>
    <text x="80" y="180" class="body">• 可以成为口碑传播者</text>
  </g>

  <g filter="url(#chasm-16-shadow)">
    <rect x="60" y="210" width="840" height="120" rx="16" fill="#FFFFFF" stroke="#E2E8F0" />
    <text x="80" y="238" class="section">2. 构建整体产品概念</text>
    <text x="80" y="266" class="body">• 产品本身只是核心</text>
    <text x="80" y="288" class="body">• 还需要：服务、支持、案例、生态</text>
    <text x="80" y="310" class="body">• 务实者需要“完整解决方案”</text>
  </g>

  <g filter="url(#chasm-16-shadow)">
    <rect x="60" y="340" width="840" height="120" rx="16" fill="#FFFFFF" stroke="#E2E8F0" />
    <text x="80" y="368" class="section">3. 持续的市场教育</text>
    <text x="80" y="396" class="body">• 内容营销建立权威</text>
    <text x="80" y="418" class="body">• 案例研究证明价值</text>
    <text x="80" y="440" class="body">• 用户社区扩大影响</text>
  </g>

  <g filter="url(#chasm-16-shadow)">
    <rect x="60" y="470" width="840" height="100" rx="16" fill="#FFFFFF" stroke="#E2E8F0" />
    <text x="80" y="498" class="section">4. 务实者信任的证据</text>
    <text x="80" y="526" class="body">• 参考客户（和他们类似的公司）</text>
    <text x="80" y="548" class="body">• 第三方认可（分析师、奖项）</text>
    <text x="400" y="548" class="body">• 规模和稳定性证明</text>
  </g>
</svg>
